<?xml version="1.0" encoding="utf-8"?>
<!-- Generator: Adobe Illustrator 24.1.0, SVG Export Plug-In . SVG Version: 6.00 Build 0)  -->
<svg version="1.1" id="レイヤー_1" xmlns="http://www.w3.org/2000/svg" xmlns:xlink="http://www.w3.org/1999/xlink" x="0px"
	 y="0px" viewBox="0 0 153.6 47.7" style="enable-background:new 0 0 153.6 47.7;" xml:space="preserve">
<style type="text/css">
	.st0{fill:#1E88E5;}
</style>
<g>
	<g>
		<path class="st0" d="M109.3,15c7.9,0.3,11.9,3.4,11.9,9.2c0,2.3,0,4.3,0,5.9l-2.4,5H103v-5h11.6c0,0,0-3.8,0-5.9
			c0-1.4-0.5-2-1.5-2.7c-1.1-0.7-1.8-0.8-4.2-0.8c-3.3,0-5.9,0.6-7.8,2.8s-2.8,4.8-2.8,7.8c0,3.2,1,5.8,3,7.8s4.7,3,7.9,3
			c2.9,0,11.3,0,11.3,0v5.5h-11.3c-5.3,0.3-9.5-1.5-12.7-4.4s-4.7-6.7-4.7-11.3c0-5.1,1.6-9.3,4.7-12.5
			C99.6,16.3,103.9,14.8,109.3,15z"/>
	</g>
	<g>
		<path class="st0" d="M142.3,15c7.9,0.3,11.9,3.4,11.9,9.2c0,2.3,0,4.3,0,5.9l-2.4,5H136v-5h11.6c0,0,0-3.8,0-5.9
			c0-1.4-0.5-2-1.5-2.7c-1.1-0.7-1.8-0.8-4.2-0.8c-3.3,0-5.9,0.6-7.8,2.8c-1.9,2.2-2.8,4.8-2.8,7.8c0,3.2,1,5.8,3,7.8s4.7,3,7.9,3
			c2.9,0,11.3,0,11.3,0v5.5h-11.3c-5.3,0.3-9.5-1.5-12.7-4.4s-4.7-6.7-4.7-11.3c0-5.1,1.6-9.3,4.7-12.5
			C132.6,16.3,136.9,14.8,142.3,15z"/>
	</g>
	<path class="st0" d="M18.6,20.8h-7.8v27H4.6v-27H0L2.7,15h1.9c0-4.6,1.6-8.3,4.7-11s7.1-4.1,12-4.1v5.7c-7,0-10.6,3.1-10.6,9.3h7.8
		L18.6,20.8L18.6,20.8z"/>
	<path class="st0" d="M43.8,47.7V29.1c0-5.2,1-8.8,2.9-10.8c1-1,2.1-1.7,3.5-2.2s2.6-0.8,3.6-0.9c1-0.1,2.4-0.1,4.2-0.1h6v5.7h-7.2
		c-0.9,0-1.6,0-2.1,0.1s-1.1,0.2-1.8,0.5s-1.3,0.7-1.8,1.3c-0.9,1.1-1.3,3.3-1.3,6.5v18.6L43.8,47.7L43.8,47.7z"/>
	<path class="st0" d="M66,20.8L78.1,8.6V15h9.2v5.7h-9.2v14c0,1.6,0.3,2.9,0.8,4c0.5,1,1.3,1.8,2.3,2.2s1.9,0.7,2.8,0.9
		c0.9,0.1,2,0.2,3.3,0.2v5.7c-5.2,0-9.1-1-11.6-3S72,39.4,72,34.8v-14L66,20.8L66,20.8z"/>
	<g>
		<path class="st0" d="M30.6,13.7C30.6,13.7,30.7,13.7,30.6,13.7L30.6,13.7L30.6,13.7z"/>
		<path class="st0" d="M36,16.4c0.2-0.2,0.2-0.4,0.1-0.6c0-0.3-0.1-0.7-0.3-0.9c-0.4-0.4-0.8-0.1-1.3-0.2l0,0c0-0.1-0.1-0.3-0.1-0.4
			c0-0.1,0.1-0.1,0.1-0.2c0.1-0.1,0.2-0.3,0.3-0.4c0.3-0.4,0.6-0.9,0.4-1.3c-0.2-0.5-0.4-1.1-0.8-1.5c-0.3-0.3-0.5-0.8-1-0.8l0,0
			c-0.2-0.1-0.5,0-0.8,0c0-0.1,0-0.1,0-0.2c0.1-0.1,0.2-0.2,0.2-0.2C33,9.3,33,9.2,33.1,9c0.2,0,0.3-0.5,0.3-0.6s0-0.2-0.1-0.3
			c0-0.1,0-0.2,0.1-0.3c0.1-0.2,0.1-0.4,0-0.7c0-0.1-0.1-0.1-0.2-0.2c-0.1-0.1-0.1-0.2-0.1-0.3c0-0.3-0.2-0.5-0.5-0.6
			c-0.2-0.1-0.4-0.3-0.7-0.3s-0.5,0-0.8,0.2C31.1,5.9,31,6,31,6c-0.1,0-0.2,0-0.2,0c-0.3,0.1-0.4,0.4-0.4,0.6c0,0.1-0.1,0.2-0.1,0.3
			c-0.1,0.2,0.1,0.3,0.1,0.5c0,0.1-0.1,0.3,0,0.4c0,0.1,0.1,0.2,0.1,0.3s0,0.1,0,0.2c0,0.4,0.1,0.6,0.5,0.8c0,0,0,0.1,0.1,0.1
			c0.1,0.1,0.2,0.2,0.3,0.3v0.1c0,0.1,0,0.3,0,0.4c-0.4,0-0.8,0.1-1,0.4c-0.1,0.1-0.1,0.3-0.1,0.5V11c0,0.1,0,0.2-0.1,0.4
			c-0.1,0.4-0.1,0.8-0.1,1.2c0,0.1,0,0.1,0,0.2c-0.3-0.3-0.6-0.6-0.9-0.8c-0.1-0.1-0.3-0.3-0.4-0.4c0,0,0-0.5,0.2-0.5
			c0.1,0,0.3,0,0.4,0c0.2,0,0.4-0.1,0.4-0.3c0-0.1-0.1-0.6-0.1-0.6c0.1-0.1,0.1-0.2,0-0.2l-0.2-0.1c0-0.1,0.3-0.1,0.3-0.3
			c0-0.1-0.1-0.2-0.1-0.3C29.3,9,29.5,9,29.6,9c0.1-0.1,0.1-0.2,0-0.4c0,0,0,0-0.1-0.1c-0.2-0.2-0.4-0.2-0.5-0.6c0-0.2,0-0.5,0-0.5
			c0-0.2-0.1-0.5-0.1-0.7c0-0.1-0.1-0.2-0.1-0.3c0,0,0,0,0.1,0c0.2-0.1,0.2-0.4,0.2-0.6c0-0.3-0.3-0.4-0.5-0.4
			c-0.3,0-0.5-0.1-0.7-0.2c-0.4-0.3-1.1-0.5-1.6-0.4c-0.1,0-0.3,0.1-0.4,0.1c-0.4,0-0.9,0.1-1.2,0.4c-0.3,0.2-0.6,0.5-0.7,0.9
			c-0.1,0.2-0.3,0.9-0.4,1.1c-0.1,0.4,0.2,1.8,0.4,2.1c0.2,0.2,0.9,0.8,1.1,1c0.1,0.2,0.4,1,0.5,1c0,0.2,0,0.3,0,0.5c0,0,0,0,0,0.1
			c-0.2,0.3-0.4,0.7-0.3,1.1c0.1,0.8,0.1,1.6,0.2,2.4c0.1,0.6,0.3,1.2,0.5,1.8c0.2,0.8,0.4,1.6,0.6,2.3c0.1,0.6,0.2,1.2,0.4,1.8
			c0.2,0.6,0.4,1.1,0.5,1.8c0.1,0.8,0.2,1.6,0.3,2.4c0,0.5,0.2,17.4,0.5,18.5c0,0.1,0,0.1-0.1,0.2c-0.2,0.7-0.3,1.5-0.3,2.1
			c0,1.3,0.9,1.1,1.9,1.1c1.3-0.1,2.8,0.5,4.1,0.3c0.6-0.1,1.4-0.3,1.3-0.9c0.5-0.2,0.9-0.5,0.7-1c-0.4-0.8-1.6-1.2-2.3-1.6
			c-0.4-0.2-0.8-0.4-1.1-0.7c0.2-0.9,1.5-17,1.5-17.2c0.1,0,0.7,0,0.7-0.1c0.2-0.2,0-0.8,0-1c0-0.6-0.1-1.1-0.1-1.7
			c-0.1-0.8-0.3-1.7-0.4-2.5c-0.1-0.3-0.2-1-0.5-1.2c0.3,0.1,0.9,0.1,1.2-0.1s0.4-0.6,0.4-1c0-0.3,0.1-0.9,0-1.3
			C35.3,17.2,35.7,16.7,36,16.4z M30.6,13.7L30.6,13.7L30.6,13.7C30.7,13.7,30.6,13.7,30.6,13.7z"/>
	</g>
</g>
</svg>
