<?xml version="1.0" encoding="utf-8"?>
<!-- Generator: Adobe Illustrator 15.1.0, SVG Export Plug-In . SVG Version: 6.00 Build 0)  -->
<!DOCTYPE svg PUBLIC "-//W3C//DTD SVG 1.1//EN" "http://www.w3.org/Graphics/SVG/1.1/DTD/svg11.dtd">
<svg version="1.1" id="レイヤー_1" xmlns="http://www.w3.org/2000/svg" xmlns:xlink="http://www.w3.org/1999/xlink" x="0px"
	 y="0px" width="163.697px" height="163.695px" viewBox="0 0 163.697 163.695" enable-background="new 0 0 163.697 163.695"
	 xml:space="preserve">
<g id="XMLID_19_">
	<defs>
		<circle id="XMLID_1_" cx="81.849" cy="81.848" r="81.849"/>
	</defs>
	<clipPath id="XMLID_6_">
		<use xlink:href="#XMLID_1_"  overflow="visible"/>
	</clipPath>
	<circle id="XMLID_17_" clip-path="url(#XMLID_6_)" fill="#D81B60" cx="81.849" cy="81.848" r="81.849"/>
	<circle id="XMLID_5_" clip-path="url(#XMLID_6_)" fill="none" cx="81.849" cy="81.848" r="81.849"/>
	<circle id="XMLID_4_" clip-path="url(#XMLID_6_)" fill="none" cx="81.849" cy="81.848" r="81.849"/>
	<circle id="XMLID_3_" clip-path="url(#XMLID_6_)" fill="none" cx="81.849" cy="81.848" r="81.849"/>
	<g id="XMLID_18_" clip-path="url(#XMLID_6_)">
		<path id="XMLID_22_" fill="#FFFFFF" d="M31.611,144.304v-3.774c2.761-4.907,2.476-9.788,2.497-11.709
			c0.041-3.676,1.431-5.698,3.084-8.035c1.654-2.334,3.688-8.187,0-8.689c-1.236-0.168-3.458,1.388-5.581,4.51v-3.311l23.251-22.843
			l-0.009-0.126c-0.02-0.301-0.474-0.891-3.291-1.449c-3.982-0.787-11.269-1.201-21.071-1.201c-9.803,0-17.089,0.414-21.072,1.201
			c-2.817,0.558-3.271,1.147-3.291,1.449l-0.008,0.126l23.25,22.843v3.027c-0.551-1.471,0-3.027-5.453-2.02L6.121,124.776
			l-3.295,11.579l4.962,5.146h9.131c-7.118,7.87-13.013,12.52-3.066,10.29c1.182-0.265,2.285-0.564,3.334-0.886
			c0.723,0.652,1.846,1.244,3.352,1.729c2.644,0.859,6.146,1.327,9.87,1.327c0.03,0,0.062,0,0.093,0
			c6.999-0.014,14.236-1.835,14.229-4.86C44.726,146.455,39.104,144.413,31.611,144.304z M28.181,144.898
			c0.393-0.018,0.788-0.031,1.191-0.04v0.061c-0.287,0.011-0.751,0.031-1.271,0.061C28.128,144.952,28.152,144.925,28.181,144.898z
			 M28.764,144.327c0.213-0.218,0.412-0.44,0.607-0.661v0.639C29.166,144.309,28.968,144.32,28.764,144.327z M6.769,90.318
			c0.558-0.445,3.953-2.089,23.723-2.089c19.769,0,23.165,1.644,23.721,2.089L31.06,113.064v4.399
			c-0.287,0.466-0.571,0.947-0.848,1.469c-0.103-0.339-0.198-0.652-0.289-0.942v-4.926L6.769,90.318z M40.287,152.071
			c-2.065,0.677-4.675,1.118-7.509,1.275c0.464-0.131,0.197-0.247-2.287-0.247c-4.673,0-9.518-0.743-12.447-2.468
			c2.851-0.947,5.198-2.092,7.127-3.362c1.816,0.157,3.547,0.287,4.2,0.337v0.021h0.275l0,0h0.276v-4.613
			c0.418-0.52,0.798-1.044,1.137-1.57v6.184h0.551v-2.769c7.868,0.107,12.565,2.229,12.57,4.246
			C44.183,150.174,42.764,151.256,40.287,152.071z"/>
		<path id="XMLID_31_" fill="#FFFFFF" d="M45.968,97.34c0,0-0.913-1.595-15.476-1.595c-14.564,0-15.476,1.595-15.476,1.595
			l15.476,15.648L45.968,97.34z M39.758,99.918c0.417,0,0.757,0.337,0.757,0.755c0,0.418-0.34,0.758-0.757,0.758
			c-0.419,0-0.757-0.34-0.757-0.758C39.001,100.255,39.339,99.918,39.758,99.918z M35.646,102.945c0.271,0,0.49,0.22,0.49,0.49
			s-0.219,0.49-0.49,0.49s-0.492-0.22-0.492-0.49S35.375,102.945,35.646,102.945z M26.918,105.127v-0.369h3.411v-0.834
			c-1.81-0.097-3.252-1.599-3.252-3.433c0-1.894,1.542-3.435,3.437-3.435s3.437,1.541,3.437,3.435c0,1.833-1.443,3.336-3.252,3.433
			v0.834h3.41v0.369h-3.41v4.179h-0.369v-4.179H26.918z"/>
		<path id="XMLID_34_" fill="#FFFFFF" d="M33.581,100.491c0-1.691-1.376-3.068-3.068-3.068c-1.693,0-3.068,1.376-3.068,3.068
			c0,1.694,1.375,3.07,3.068,3.07C32.205,103.562,33.581,102.185,33.581,100.491z"/>
		<path id="XMLID_35_" fill="#FFFFFF" d="M155.562,45.504c-1.552-2.963-7.663-13.794-17.168-23.998
			C132.356,9.939,119.518,0.632,95.001,0.632c-1.669,0-3.693,0.284-5.934,0.84C66.569,3.715,50.256,16.589,53.021,36.409
			c0.848,5.418,2.701,8.901,5.106,11.333c0.053,0.123,0.089,0.242,0.143,0.366c1.63,2.792,1.771,5.472,1.108,7.889
			c-1.621,0.53-4.316,1.699-6.701,0.629c1.594,0.74,4.335,0.678,6.367,0.391c-1.759,4.665-6.354,8.188-8.442,9.35
			c-3.288,1.825,0.729,6.938,3.286,7.668c2.556,0.73,3.132,4.026,1.995,5.162s-2.273,2.435,0.161,4.383
			c1.302,1.04,2.035,1.193,2.447,1.118c-1.983,1.292-2.296,2.222-2.447,3.426c-0.161,1.3,0.487,1.786,1.948,1.786
			s0.65,6.494-0.811,9.739c-1.461,3.248,5.842,5.034,15.175,2.11c9.334-2.919,11.769-3.408,12.419-2.272
			c0.647,1.136,4.674,26.577-1.697,34.233c-5.63,6.766-30.483,23.32-33.08,25.268c-2.597,1.948,16.179,8.426,33.87,8.426
			c17.692,0,44.27-16.5,47.435-19.662c3.167-3.167-6.055-9.501-11.103-18.26c-3.252-5.639-3.146-16.937-2.033-26.651
			c2.523,0.187,9.069-5.193,11.521-20.992c2.939,12.557-1.341,17.996-4.159,20.814c3.186,1.593,8.729-1.282,10.291-1.655
			c3.644-0.868,8.699-21.133,7.903-34.12c5.896,8.647,0.751,27.862-2.926,32.577C165.582,94.942,158.105,50.36,155.562,45.504z"/>
	</g>
</g>
</svg>
