<?xml version="1.0" encoding="utf-8"?>
<!-- Generator: Adobe Illustrator 15.1.0, SVG Export Plug-In . SVG Version: 6.00 Build 0)  -->
<!DOCTYPE svg PUBLIC "-//W3C//DTD SVG 1.1//EN" "http://www.w3.org/Graphics/SVG/1.1/DTD/svg11.dtd">
<svg version="1.1" id="レイヤー_1" xmlns="http://www.w3.org/2000/svg" xmlns:xlink="http://www.w3.org/1999/xlink" x="0px"
	 y="0px" width="155.5px" height="204px" viewBox="0 0 155.5 204" enable-background="new 0 0 155.5 204" xml:space="preserve">
<g id="XMLID_40_">
	<defs>
		<circle id="XMLID_41_" cx="78.32" cy="78.197" r="70.697"/>
	</defs>
	<clipPath id="XMLID_2_">
		<use xlink:href="#XMLID_41_"  overflow="visible"/>
	</clipPath>
	<circle id="XMLID_59_" clip-path="url(#XMLID_2_)" fill="#CA245C" cx="78.32" cy="78.197" r="70.697"/>
	<circle id="XMLID_58_" clip-path="url(#XMLID_2_)" fill="none" cx="78.32" cy="78.197" r="70.697"/>
	<circle id="XMLID_57_" clip-path="url(#XMLID_2_)" fill="none" cx="78.32" cy="78.197" r="70.697"/>
	<circle id="XMLID_56_" clip-path="url(#XMLID_2_)" fill="none" cx="78.32" cy="78.197" r="70.697"/>
	<g id="XMLID_42_" clip-path="url(#XMLID_2_)">
		<path id="XMLID_50_" fill="#FFFFFF" d="M34.927,132.145v-3.261c2.385-4.237,2.139-8.455,2.157-10.114
			c0.035-3.175,1.235-4.92,2.664-6.938s3.185-7.072,0-7.506c-1.068-0.146-2.988,1.201-4.821,3.897v-2.861L55.01,85.63l-0.007-0.109
			c-0.017-0.261-0.409-0.771-2.843-1.251c-3.439-0.679-9.733-1.038-18.2-1.038s-14.761,0.359-18.2,1.038
			c-2.434,0.48-2.826,0.99-2.843,1.251L12.91,85.63l20.083,19.73v2.615c-0.476-1.27,0-2.615-4.71-1.746l-15.373,9.048l-2.845,10
			l4.286,4.444h7.886c-6.148,6.799-11.239,10.815-2.648,8.889c1.021-0.229,1.974-0.488,2.88-0.765
			c0.625,0.563,1.594,1.074,2.895,1.495c2.284,0.74,5.309,1.146,8.524,1.146c0.027,0,0.054,0,0.081,0
			c6.046-0.013,12.297-1.587,12.292-4.2C46.255,134.003,41.399,132.236,34.927,132.145z M31.964,132.658
			c0.339-0.017,0.682-0.03,1.029-0.036v0.053c-0.248,0.009-0.649,0.027-1.098,0.051C31.918,132.703,31.94,132.68,31.964,132.658z
			 M32.469,132.164c0.184-0.188,0.355-0.379,0.524-0.571v0.553C32.815,132.149,32.644,132.158,32.469,132.164z M13.47,85.513
			c0.481-0.386,3.415-1.805,20.49-1.805s20.009,1.419,20.49,1.805l-20,19.648v3.8c-0.248,0.401-0.493,0.818-0.732,1.27
			c-0.088-0.294-0.171-0.565-0.25-0.815v-4.254L13.47,85.513z M42.421,138.853c-1.784,0.586-4.038,0.965-6.486,1.102
			c0.401-0.112,0.17-0.214-1.975-0.214c-4.035,0-8.22-0.64-10.751-2.131c2.462-0.817,4.49-1.807,6.156-2.904
			c1.569,0.136,3.063,0.25,3.628,0.292v0.018h0.238l0,0h0.238v-3.986c0.361-0.448,0.689-0.9,0.981-1.354v5.34h0.476v-2.394
			c6.796,0.095,10.854,1.926,10.857,3.668C45.786,137.215,44.56,138.149,42.421,138.853z"/>
		<path id="XMLID_45_" fill="#FFFFFF" d="M47.328,91.579c0,0-0.789-1.378-13.368-1.378s-13.368,1.378-13.368,1.378l13.368,13.516
			L47.328,91.579z M41.963,93.805c0.361,0,0.653,0.292,0.653,0.654c0,0.361-0.292,0.653-0.653,0.653s-0.654-0.292-0.654-0.653
			C41.31,94.098,41.603,93.805,41.963,93.805z M38.412,96.42c0.234,0,0.424,0.19,0.424,0.424c0,0.234-0.19,0.424-0.424,0.424
			c-0.234,0-0.424-0.19-0.424-0.424C37.988,96.61,38.178,96.42,38.412,96.42z M30.874,98.304v-0.318h2.946v-0.721
			c-1.563-0.083-2.809-1.38-2.809-2.964c0-1.637,1.331-2.968,2.968-2.968s2.968,1.332,2.968,2.968c0,1.583-1.246,2.881-2.809,2.964
			v0.721h2.946v0.318h-2.946v3.611H33.82v-3.611H30.874z"/>
		<circle id="XMLID_44_" fill="#FFFFFF" cx="33.979" cy="94.301" r="2.65"/>
		<path id="XMLID_43_" fill="#FFFFFF" d="M141.99,46.805c-1.341-2.559-6.618-11.915-14.828-20.729
			c-5.217-9.991-16.307-18.03-37.481-18.03c-1.441,0-3.191,0.247-5.126,0.727C65.123,10.709,51.032,21.83,53.421,38.948
			c0.732,4.681,2.333,7.689,4.411,9.79c0.045,0.106,0.077,0.209,0.123,0.315c1.407,2.412,1.53,4.727,0.957,6.814
			c-1.399,0.458-3.728,1.467-5.787,0.544c1.376,0.639,3.743,0.585,5.499,0.337c-1.52,4.029-5.488,7.073-7.292,8.076
			c-2.839,1.577,0.631,5.993,2.839,6.624s2.705,3.478,1.723,4.459s-1.963,2.103,0.14,3.785c1.123,0.898,1.757,1.031,2.113,0.966
			c-1.712,1.117-1.982,1.92-2.113,2.96c-0.14,1.122,0.421,1.542,1.683,1.542s0.561,5.608-0.701,8.412
			c-1.262,2.804,5.047,4.346,13.109,1.823s10.165-2.944,10.725-1.963c0.561,0.981,4.037,22.955-1.466,29.569
			c-4.862,5.845-26.329,20.144-28.572,21.826c-2.243,1.683,13.974,7.277,29.256,7.277s38.238-14.251,40.972-16.985
			s-5.23-8.205-9.591-15.769c-2.809-4.872-2.717-14.629-1.756-23.021c2.182,0.16,7.835-4.485,9.951-18.132
			c2.54,10.847-1.158,15.544-3.591,17.978c2.751,1.375,7.539-1.107,8.889-1.429c3.148-0.749,7.514-18.254,6.826-29.472
			c5.092,7.469,0.648,24.065-2.526,28.14C150.645,89.508,144.187,51,141.99,46.805z"/>
	</g>
</g>
<g id="XMLID_6_">
	<rect id="XMLID_39_" x="14.28" y="148.346" fill="#CA245C" width="0.411" height="37.898"/>
	<rect id="XMLID_38_" x="48.128" y="163.572" fill="#CA245C" width="0.411" height="34.149"/>
	<rect id="XMLID_37_" x="34.967" y="166.196" fill="#CA245C" width="0.412" height="20.048"/>
	<rect id="XMLID_36_" x="3.194" y="163.366" fill="#CA245C" width="22.418" height="0.412"/>
	<path id="XMLID_23_" fill="#CA245C" d="M35.173,160.973c-1.462,0-2.649-1.188-2.649-2.649s1.188-2.649,2.649-2.649
		c1.461,0,2.651,1.188,2.651,2.649S36.634,160.973,35.173,160.973z M35.173,156.086c-1.234,0-2.238,1.004-2.238,2.238
		s1.004,2.238,2.238,2.238s2.24-1.004,2.24-2.238S36.407,156.086,35.173,156.086z"/>
	<path id="XMLID_14_" fill="#CA245C" d="M61.649,186.28c-6.401,0-11.608-5.208-11.608-11.608s5.208-11.608,11.608-11.608
		s11.608,5.208,11.608,11.608S68.05,186.28,61.649,186.28z M61.649,163.475c-6.173,0-11.197,5.024-11.197,11.197
		c0,6.173,5.024,11.197,11.197,11.197c6.173,0,11.197-5.024,11.197-11.197C72.847,168.499,67.822,163.475,61.649,163.475z"/>
	<rect id="XMLID_13_" x="121.433" y="163.273" fill="#CA245C" width="0.412" height="34.452"/>
	<path id="XMLID_12_" fill="#CA245C" d="M111.924,186.28c-5.47,0-9.919-4.449-9.919-9.919h0.412c0,5.242,4.266,9.508,9.508,9.508
		c5.244,0,9.509-4.266,9.509-9.508h0.412C121.845,181.831,117.395,186.28,111.924,186.28z"/>
	<g id="XMLID_10_">
		<path id="XMLID_11_" fill="#CA245C" d="M88.072,186.099c-0.139,0-0.278-0.004-0.419-0.012c-2.038-0.111-6.157-1.379-7.145-5.377
			l0.399-0.101c0.931,3.764,4.834,4.959,6.77,5.066c1.877,0.089,3.701-0.544,5.088-1.826c1.345-1.244,2.111-2.909,2.153-4.688
			c0.042-1.891-0.606-3.621-1.831-4.873c-1.264-1.294-3.026-1.98-5.096-1.98c-2.228,0-4.091-0.704-5.387-2.03
			c-1.272-1.304-1.945-3.165-1.895-5.242c0.091-3.881,3.456-6.919,7.663-6.919v0.411c-3.981,0-7.165,2.863-7.251,6.516
			c-0.046,1.965,0.586,3.722,1.78,4.945c1.216,1.246,2.978,1.905,5.091,1.907c2.183,0,4.048,0.726,5.393,2.103
			c1.303,1.333,1.994,3.169,1.946,5.169c-0.044,1.893-0.857,3.663-2.284,4.983C91.678,185.416,89.924,186.099,88.072,186.099z"/>
	</g>
	<g id="XMLID_8_">
		<path id="XMLID_9_" fill="#CA245C" d="M137.977,186.099c-0.139,0-0.278-0.004-0.419-0.012c-2.038-0.111-6.159-1.379-7.147-5.377
			l0.399-0.101c0.931,3.766,4.836,4.959,6.772,5.066c0.131,0.006,0.262,0.01,0.393,0.01c1.752,0,3.405-0.645,4.695-1.836
			c1.345-1.244,2.109-2.909,2.151-4.688c0.044-1.889-0.604-3.619-1.829-4.871c-1.264-1.296-3.028-1.982-5.098-1.982
			c-2.228,0-4.091-0.704-5.387-2.03c-1.272-1.304-1.945-3.165-1.895-5.242c0.089-3.881,3.456-6.919,7.663-6.919v0.411
			c-3.982,0-7.165,2.863-7.252,6.516c-0.046,1.965,0.587,3.722,1.78,4.945c1.216,1.246,2.978,1.905,5.091,1.907
			c2.185,0,4.05,0.728,5.395,2.104c1.301,1.333,1.992,3.167,1.944,5.167c-0.044,1.893-0.855,3.661-2.282,4.981
			C141.583,185.416,139.83,186.099,137.977,186.099z"/>
	</g>
</g>
</svg>
